<svg height="1870" width="720" xmlns="http://www.w3.org/2000/svg">
<rect height="1870" fill="#555" width="720"></rect>
<text fill="#7f7" font-family="Courier New" font-size="12" xml:space="preserve">
<tspan x="10" y="26"></tspan>
<tspan x="10" y="42">&gt; npmdoc-ms@0.0.2 test /home/travis/build/npmdoc/node-npmdoc-ms</tspan>
<tspan x="10" y="58">&gt; (set -e; export PORT=$(utility2 shServerPortRandom); utility2 test test.js)</tspan>
<tspan x="10" y="74"></tspan>
<tspan x="10" y="90"></tspan>
<tspan x="10" y="106">[MODE_BUILD=npmTest] - 2017-04-07T20:43:12Z - npm-testing /home/travis/build/npmdoc/node-npmdoc-\</tspan>
<tspan x="10" y="122">ms</tspan>
<tspan x="10" y="138"></tspan>
<tspan x="10" y="154"></tspan>
<tspan x="10" y="170">covering $ /home/travis/.nvm/versions/node/v6.10.2/bin/node /home/travis/build/npmdoc/node-npmdo\</tspan>
<tspan x="10" y="186">c-ms/test.js</tspan>
<tspan x="10" y="202">merging file:///home/travis/build/npmdoc/node-npmdoc-ms/tmp/build/test-report.json to test-repor\</tspan>
<tspan x="10" y="218">t</tspan>
<tspan x="10" y="234">&gt; server listening on http-port 64922</tspan>
<tspan x="10" y="250">created apidoc file:///home/travis/build/npmdoc/node-npmdoc-ms/tmp/build/apidoc.html</tspan>
<tspan x="10" y="266"></tspan>
<tspan x="10" y="282"></tspan>
<tspan x="10" y="298">browserTest - created electron entry-page /home/travis/build/npmdoc/node-npmdoc-ms/tmp/electron.\</tspan>
<tspan x="10" y="314">15b4a2817e00.9340ca4a50e71.html</tspan>
<tspan x="10" y="330"></tspan>
<tspan x="10" y="346">[node test-case 1 of 6 passed] - testCase_buildLib_default</tspan>
<tspan x="10" y="362">[node test-case 2 of 6 passed] - testCase_buildReadme_default</tspan>
<tspan x="10" y="378">[node test-case 3 of 6 passed] - testCase_buildTest_default</tspan>
<tspan x="10" y="394"></tspan>
<tspan x="10" y="410">browserTest - created electron entry-page /home/travis/build/npmdoc/node-npmdoc-ms/tmp/electron.\</tspan>
<tspan x="10" y="426">15b4a28181e0.e1e3e118f78d9.html</tspan>
<tspan x="10" y="442"></tspan>
<tspan x="10" y="458">Xlib:  extension "RANDR" missing on display ":99.0".</tspan>
<tspan x="10" y="474">Xlib:  extension "RANDR" missing on display ":99.0".</tspan>
<tspan x="10" y="490">&gt; server listening on http-port 58272</tspan>
<tspan x="10" y="506">merging file:///home/travis/build/npmdoc/node-npmdoc-ms/tmp/build/test-report.json to test-repor\</tspan>
<tspan x="10" y="522">t</tspan>
<tspan x="10" y="538">Xlib:  extension "RANDR" missing on display ":99.0".</tspan>
<tspan x="10" y="554">merging file:///home/travis/build/npmdoc/node-npmdoc-ms/tmp/build/test-report.json to test-repor\</tspan>
<tspan x="10" y="570">t</tspan>
<tspan x="10" y="586">[5657:0407/204314:WARNING:audio_manager.cc(314)] Multiple instances of AudioManager detected</tspan>
<tspan x="10" y="602">[5657:0407/204314:WARNING:audio_manager.cc(275)] Multiple instances of AudioManager detected</tspan>
<tspan x="10" y="618">Xlib:  extension "RANDR" missing on display ":99.0".</tspan>
<tspan x="10" y="634">[5659:0407/204314:WARNING:audio_manager.cc(314)] Multiple instances of AudioManager detected</tspan>
<tspan x="10" y="650">[5659:0407/204314:WARNING:audio_manager.cc(275)] Multiple instances of AudioManager detected</tspan>
<tspan x="10" y="666">[5693:0407/204314:ERROR:sandbox_linux.cc(343)] InitializeSandbox() called with multiple threads \</tspan>
<tspan x="10" y="682">in process gpu-process. </tspan>
<tspan x="10" y="698">[5657:0407/204314:ERROR:browser_gpu_channel_host_factory.cc(131)] Failed to create channel.</tspan>
<tspan x="10" y="714">[5710:0407/204314:ERROR:sandbox_linux.cc(343)] InitializeSandbox() called with multiple threads \</tspan>
<tspan x="10" y="730">in process gpu-process. </tspan>
<tspan x="10" y="746">[5659:0407/204314:ERROR:browser_gpu_channel_host_factory.cc(131)] Failed to create channel.</tspan>
<tspan x="10" y="762"></tspan>
<tspan x="10" y="778">browserTest - opened url /home/travis/build/npmdoc/node-npmdoc-ms/tmp/build/apidoc.html</tspan>
<tspan x="10" y="794"></tspan>
<tspan x="10" y="810"></tspan>
<tspan x="10" y="826">browserTest - opened url http://127.0.0.1:64922?modeTest=1</tspan>
<tspan x="10" y="842"></tspan>
<tspan x="10" y="858">[5659:0407/204316:INFO:CONSOLE(249)] "----------|-----------|-----------|-----------|-----------\</tspan>
<tspan x="10" y="874">|</tspan>
<tspan x="10" y="890">File      |   % Stmts |% Branches |   % Funcs |   % Lines |</tspan>
<tspan x="10" y="906">----------|-----------|-----------|-----------|-----------|</tspan>
<tspan x="10" y="922">----------|-----------|-----------|-----------|-----------|</tspan>
<tspan x="10" y="938">All files |       100 |       100 |       100 |       100 |</tspan>
<tspan x="10" y="954">----------|-----------|-----------|-----------|-----------|</tspan>
<tspan x="10" y="970">", source: file:///home/travis/build/npmdoc/node-npmdoc-ms/tmp/electron.15b4a28181e0.e1e3e118f78\</tspan>
<tspan x="10" y="986">d9.html (249)</tspan>
<tspan x="10" y="1002">[5659:0407/204316:INFO:CONSOLE(249)] "created coverage file:///tmp/build/coverage.html/index.htm\</tspan>
<tspan x="10" y="1018">l", source: file:///home/travis/build/npmdoc/node-npmdoc-ms/tmp/electron.15b4a28181e0.e1e3e118f7\</tspan>
<tspan x="10" y="1034">8d9.html (249)</tspan>
<tspan x="10" y="1050">[node test-case 4 of 6 passed] - testCase_buildApp_default</tspan>
<tspan x="10" y="1066"></tspan>
<tspan x="10" y="1082">browserTest - exit-code 1 - /home/travis/build/npmdoc/node-npmdoc-ms/tmp/build/apidoc.html</tspan>
<tspan x="10" y="1098"></tspan>
<tspan x="10" y="1114">[node test-case 5 of 6 passed] - testCase_buildApidoc_default</tspan>
<tspan x="10" y="1130"></tspan>
<tspan x="10" y="1146">browserTest - created screenCapture file:///home/travis/build/npmdoc/node-npmdoc-ms/tmp/build/sc\</tspan>
<tspan x="10" y="1162">reenCapture.%2F.png</tspan>
<tspan x="10" y="1178"></tspan>
<tspan x="10" y="1194">browserTest - created screenCapture file:///home/travis/build/npmdoc/node-npmdoc-ms/tmp/build/sc\</tspan>
<tspan x="10" y="1210">reenCapture.%2F.html</tspan>
<tspan x="10" y="1226"></tspan>
<tspan x="10" y="1242">browserTest - exit-code 0 - http://127.0.0.1:64922?modeTest=1</tspan>
<tspan x="10" y="1258"></tspan>
<tspan x="10" y="1274"></tspan>
<tspan x="10" y="1290">browserTest - merged coverage from /home/travis/build/npmdoc/node-npmdoc-ms/tmp/coverage.%2F.jso\</tspan>
<tspan x="10" y="1306">n</tspan>
<tspan x="10" y="1322"></tspan>
<tspan x="10" y="1338"></tspan>
<tspan x="10" y="1354">browserTest - merging test-report from /home/travis/build/npmdoc/node-npmdoc-ms/tmp/test-report.\</tspan>
<tspan x="10" y="1370">%2F.json</tspan>
<tspan x="10" y="1386"></tspan>
<tspan x="10" y="1402">[node test-case 6 of 6 passed] - testCase_webpage_default</tspan>
<tspan x="10" y="1418">-----------------------|-----------|-----------|-----------|-----------|</tspan>
<tspan x="10" y="1434">File                   |   % Stmts |% Branches |   % Funcs |   % Lines |</tspan>
<tspan x="10" y="1450">-----------------------|-----------|-----------|-----------|-----------|</tspan>
<tspan x="10" y="1466">   node-npmdoc-ms/     |       100 |       100 |       100 |       100 |</tspan>
<tspan x="10" y="1482">      example.js       |       100 |       100 |       100 |       100 |</tspan>
<tspan x="10" y="1498">      lib.npmdoc_ms.js |       100 |       100 |       100 |       100 |</tspan>
<tspan x="10" y="1514">      test.js          |       100 |       100 |       100 |       100 |</tspan>
<tspan x="10" y="1530">-----------------------|-----------|-----------|-----------|-----------|</tspan>
<tspan x="10" y="1546">All files              |       100 |       100 |       100 |       100 |</tspan>
<tspan x="10" y="1562">-----------------------|-----------|-----------|-----------|-----------|</tspan>
<tspan x="10" y="1578"></tspan>
<tspan x="10" y="1594">created coverage file:///home/travis/build/npmdoc/node-npmdoc-ms/tmp/build/coverage.html/index.h\</tspan>
<tspan x="10" y="1610">tml</tspan>
<tspan x="10" y="1626">merging file:///home/travis/build/npmdoc/node-npmdoc-ms/tmp/build/test-report.json to test-repor\</tspan>
<tspan x="10" y="1642">t</tspan>
<tspan x="10" y="1658"></tspan>
<tspan x="10" y="1674">-------------------------------------------------------</tspan>
<tspan x="10" y="1690">| test-report - buildNpmdoc - node - linux v6.10.2 - 2017-04-07T20:42:33.501Z</tspan>
<tspan x="10" y="1706">|   54673 ms            0 failed        6 passed      |</tspan>
<tspan x="10" y="1722">-------------------------------------------------------</tspan>
<tspan x="10" y="1738"></tspan>
<tspan x="10" y="1754">created test-report file:///home/travis/build/npmdoc/node-npmdoc-ms/tmp/build/test-report.html</tspan>
<tspan x="10" y="1770"></tspan>
<tspan x="10" y="1786"></tspan>
<tspan x="10" y="1802">npmTest - 0 failed tests</tspan>
<tspan x="10" y="1818"></tspan>
<tspan x="10" y="1834"></tspan>
<tspan x="10" y="1850">[MODE_BUILD=npmTest] - 2017-04-07T20:43:31Z - EXIT_CODE - 0</tspan>
</text>
</svg>
